<mxfile host="app.diagrams.net" modified="2023-03-05T04:09:09.034Z" agent="5.0 (Windows NT 10.0; Win64; x64) AppleWebKit/537.36 (KHTML, like Gecko) Chrome/110.0.0.0 Safari/537.36" etag="h4IhpWlDI0gn5tNK_2wr" version="20.8.23" type="github">
  <diagram name="Page-1" id="akKBFlR_z5dixgn5y5KR">
    <mxGraphModel dx="880" dy="405" grid="1" gridSize="10" guides="1" tooltips="1" connect="1" arrows="1" fold="1" page="1" pageScale="1" pageWidth="850" pageHeight="1100" math="0" shadow="0">
      <root>
        <mxCell id="0" />
        <mxCell id="1" parent="0" />
        <mxCell id="SIseykwBNVVvBNDCp5Bo-2" style="edgeStyle=orthogonalEdgeStyle;rounded=0;orthogonalLoop=1;jettySize=auto;html=1;" edge="1" parent="1" source="SIseykwBNVVvBNDCp5Bo-1">
          <mxGeometry relative="1" as="geometry">
            <mxPoint x="400" y="150" as="targetPoint" />
          </mxGeometry>
        </mxCell>
        <mxCell id="SIseykwBNVVvBNDCp5Bo-1" value="START" style="ellipse;whiteSpace=wrap;html=1;" vertex="1" parent="1">
          <mxGeometry x="340" y="40" width="120" height="80" as="geometry" />
        </mxCell>
        <mxCell id="SIseykwBNVVvBNDCp5Bo-4" style="edgeStyle=orthogonalEdgeStyle;rounded=0;orthogonalLoop=1;jettySize=auto;html=1;" edge="1" parent="1" source="SIseykwBNVVvBNDCp5Bo-3">
          <mxGeometry relative="1" as="geometry">
            <mxPoint x="400" y="240" as="targetPoint" />
          </mxGeometry>
        </mxCell>
        <mxCell id="SIseykwBNVVvBNDCp5Bo-3" value="output &quot;Ashley D. Entrada&quot;" style="shape=parallelogram;perimeter=parallelogramPerimeter;whiteSpace=wrap;html=1;fixedSize=1;" vertex="1" parent="1">
          <mxGeometry x="305" y="150" width="190" height="60" as="geometry" />
        </mxCell>
        <mxCell id="SIseykwBNVVvBNDCp5Bo-6" style="edgeStyle=orthogonalEdgeStyle;rounded=0;orthogonalLoop=1;jettySize=auto;html=1;" edge="1" parent="1" source="SIseykwBNVVvBNDCp5Bo-5">
          <mxGeometry relative="1" as="geometry">
            <mxPoint x="400" y="330" as="targetPoint" />
          </mxGeometry>
        </mxCell>
        <mxCell id="SIseykwBNVVvBNDCp5Bo-5" value="output &quot;18 years old&quot;" style="shape=parallelogram;perimeter=parallelogramPerimeter;whiteSpace=wrap;html=1;fixedSize=1;" vertex="1" parent="1">
          <mxGeometry x="320" y="240" width="160" height="60" as="geometry" />
        </mxCell>
        <mxCell id="SIseykwBNVVvBNDCp5Bo-8" style="edgeStyle=orthogonalEdgeStyle;rounded=0;orthogonalLoop=1;jettySize=auto;html=1;" edge="1" parent="1" source="SIseykwBNVVvBNDCp5Bo-7">
          <mxGeometry relative="1" as="geometry">
            <mxPoint x="400" y="420" as="targetPoint" />
          </mxGeometry>
        </mxCell>
        <mxCell id="SIseykwBNVVvBNDCp5Bo-7" value="output &quot;Block 4 Lot 50 Area 7B Venus Street Fourth Estate&amp;nbsp;&lt;span style=&quot;background-color: initial;&quot;&gt;Subdivision Barangay San Antonio Paranaque City&quot;&lt;/span&gt;" style="shape=parallelogram;perimeter=parallelogramPerimeter;whiteSpace=wrap;html=1;fixedSize=1;" vertex="1" parent="1">
          <mxGeometry x="220" y="330" width="360" height="60" as="geometry" />
        </mxCell>
        <mxCell id="SIseykwBNVVvBNDCp5Bo-9" value="END" style="ellipse;whiteSpace=wrap;html=1;" vertex="1" parent="1">
          <mxGeometry x="340" y="420" width="120" height="80" as="geometry" />
        </mxCell>
      </root>
    </mxGraphModel>
  </diagram>
</mxfile>
